<?xml version="1.0" standalone="no"?>
<!DOCTYPE svg PUBLIC "-//W3C//DTD SVG 20010904//EN"
 "http://www.w3.org/TR/2001/REC-SVG-20010904/DTD/svg10.dtd">
<svg version="1.0" xmlns="http://www.w3.org/2000/svg"
 width="225.000000pt" height="225.000000pt" viewBox="0 0 225.000000 225.000000"
 preserveAspectRatio="xMidYMid meet">
<metadata>
Created by potrace 1.14, written by Peter Selinger 2001-2017
</metadata>
<g transform="translate(0.000000,225.000000) scale(0.100000,-0.100000)"
fill="#000000" stroke="none">
<path d="M946 1964 c-161 -35 -291 -103 -410 -215 -127 -119 -214 -274 -251
-447 -21 -98 -14 -305 13 -397 30 -100 104 -240 165 -312 l52 -62 78 77 c42
42 77 81 77 85 0 5 -14 25 -30 44 -34 38 -83 131 -104 195 -48 148 -35 322 36
463 76 152 196 256 368 317 84 31 253 34 351 7 85 -24 171 -67 227 -115 l39
-33 76 77 c43 43 77 81 77 85 0 25 -125 116 -224 163 -164 78 -373 104 -540
68z"/>
<path d="M1657 1642 c-42 -43 -77 -81 -77 -85 0 -4 18 -30 40 -58 145 -184
169 -455 59 -671 -22 -44 -101 -142 -142 -178 -53 -45 -151 -100 -217 -121
-101 -33 -246 -37 -344 -10 -90 25 -165 60 -221 105 -22 18 -46 36 -54 40 -9
6 -37 -16 -92 -70 l-78 -78 25 -23 c59 -54 135 -105 215 -142 135 -63 192 -75
364 -76 130 0 160 3 225 23 165 52 282 123 390 239 248 265 301 638 139 967
-26 53 -129 198 -148 211 -4 2 -42 -31 -84 -73z"/>
<path d="M844 1431 c24 -28 28 -60 12 -91 l-14 -30 64 0 64 0 0 -62 c2 -333 5
-379 24 -394 24 -17 67 -18 89 -1 23 17 25 37 26 259 l1 197 54 0 c30 -1 63 2
73 5 40 13 50 83 17 116 -12 12 -51 15 -219 16 -186 1 -204 -1 -191 -15z"/>
<path d="M727 1422 c-23 -25 -21 -54 3 -80 36 -39 100 -11 100 43 0 48 -70 73
-103 37z"/>
<path d="M1292 1288 c-42 -11 -109 -78 -120 -120 -5 -18 -10 -101 -11 -184
l-2 -151 68 2 c37 1 71 3 74 4 3 0 5 60 4 132 -1 76 3 140 10 152 22 46 99 24
90 -25 -5 -26 -22 -38 -56 -38 -24 0 -25 -2 -25 -67 0 -38 4 -71 9 -74 14 -10
80 1 116 20 57 29 94 83 99 144 12 142 -114 242 -256 205z"/>
<path d="M748 1260 l-25 -19 1 -184 c1 -201 5 -217 56 -217 50 0 57 26 57 218
0 156 -1 175 -19 197 -23 30 -37 31 -70 5z"/>
<path d="M1169 803 c-1 -5 -2 -22 -3 -40 l-1 -32 72 0 73 0 0 39 0 40 -70 0
c-38 0 -71 -3 -71 -7z"/>
</g>
</svg>
